<?xml version="1.0" encoding="utf-8"?>
<!-- Generator: Adobe Illustrator 23.0.0, SVG Export Plug-In . SVG Version: 6.00 Build 0)  -->
<svg version="1.1" id="Layer_1" xmlns="http://www.w3.org/2000/svg" xmlns:xlink="http://www.w3.org/1999/xlink" x="0px" y="0px"
	 width="424.1px" height="512.1px" viewBox="0 0 424.1 512.1" style="enable-background:new 0 0 424.1 512.1;" xml:space="preserve"
	>
<style type="text/css">
	.st0{fill:none;}
	.st1{fill:#F16228;}
</style>
<g>
	<path class="st0" d="M224.1,319.4c-0.2-4.3-3.7-7.6-8-7.4h-8v16h8c0.5,0,0.9,0,1.4,0c4-0.4,7-4,6.6-8
		C224.1,319.8,224.1,319.6,224.1,319.4z"/>
	<path class="st0" d="M372.1,219.2l31.2-31.2c6.4-6.4,6.4-16.8,0-23.2s-16.8-6.4-23.2,0L348.9,196c-6.4,6.4-6.4,16.8,0,23.2
		C355.3,225.6,365.7,225.6,372.1,219.2z"/>
	<path class="st0" d="M220.1,292c-0.2-2.1-1.9-3.8-4-4h-8v8h8C218.2,295.8,219.9,294.1,220.1,292z"/>
	<path class="st0" d="M244.1,220c0,2.2,1.8,4,4,4c2.2,0,4-1.8,4-4c0-2.2-1.8-4-4-4c-0.7,0-1.3,0.2-1.9,0.5c-0.7,0.9-1.4,1.8-2,2.6
		C244.1,219.4,244.1,219.7,244.1,220z"/>
	<path class="st0" d="M367.7,384.8l-26,26c0,0,0,0,0,0c-6.4,6.4-6.4,16.8,0,23.2c6.5,6.2,16.7,6.2,23.2,0l25.9-26
		c3.3-3.2,5.2-7.6,5.3-12.2c-0.3-4.2-2.1-8.1-5.2-11C384.4,378.4,374.1,378.4,367.7,384.8z"/>
	<circle class="st0" cx="296.1" cy="220" r="4"/>
	<path class="st0" d="M372.9,310.5l-26.4,26.3c-6.4,6.4-6.4,16.8,0,23.2s16.8,6.4,23.2,0l26.4-26.3c6.4-6.4,6.4-16.8,0-23.2
		S379.4,304.1,372.9,310.5z"/>
	<path class="st0" d="M380.1,234.4l-31.2,31.2c-6.4,6.4-6.4,16.8,0,23.2s16.8,6.4,23.2,0l31.2-31.2c6.4-6.4,6.4-16.8,0-23.2
		C396.9,228,386.5,228,380.1,234.4z"/>
	<path class="st1" d="M414.6,223.2L414.6,223.2c-4.2-4.2-9.6-7.2-15.4-8.5l15.4-15.4c12.6-12.6,12.6-33.2,0-45.8
		c-12.6-12.6-33.2-12.6-45.8,0l-31.2,31.2c-12.6,12.5-12.7,33-0.2,45.6c4.3,4.3,9.7,7.3,15.6,8.7l-15.4,15.4
		c-5,4.9-8.1,11.1-9.1,17.6h-8.4v24c0,4.4-3.6,8-8,8s-8-3.6-8-8v-24h-16h-16v48c0,4.4-3.6,8-8,8s-8-3.6-8-8v-48h-16v48
		c0,13.3,10.7,24,24,24s24-10.7,24-24v-24c0,10.1,6.4,19.1,16,22.5V344h16v-25.5c8.8-3.1,14.9-11,15.9-20.1c0.4,0.5,0.9,1,1.3,1.5
		c4.2,4.2,9.4,7.2,15.2,8.6l-17.1,17.1c-12.7,12.5-12.8,32.9-0.3,45.5c4.1,4.2,9.4,7.2,15.1,8.6l-19.8,19.7
		c-12.8,12.5-13.2,33-0.7,45.8s33,13.2,45.8,0.7c0.2-0.2,0.5-0.5,0.7-0.7l26-26c6.3-6.2,9.9-14.7,10-23.5
		c-0.6-14.5-10.7-27-24.8-30.6l20.2-20.2c12.6-12.7,12.6-33.1,0-45.8c-4.1-4.1-9.2-6.9-14.8-8.3l22-22
		C427.2,256.3,427.2,235.9,414.6,223.2z M348.9,219.2c-6.4-6.4-6.4-16.8,0-23.2l31.2-31.2c6.4-6.4,16.8-6.4,23.2,0s6.4,16.8,0,23.2
		l-31.2,31.2C365.7,225.6,355.3,225.6,348.9,219.2z M390.9,384.8c3.1,2.8,5,6.8,5.2,11c-0.1,4.6-2,9-5.3,12.2l-25.9,26
		c-6.5,6.2-16.7,6.2-23.2,0c-6.4-6.4-6.4-16.8,0-23.2c0,0,0,0,0,0l26-26C374.1,378.4,384.4,378.4,390.9,384.8z M396.1,310.5
		c6.4,6.4,6.4,16.8,0,23.2l-26.4,26.3c-6.4,6.4-16.8,6.4-23.2,0s-6.4-16.8,0-23.2l26.4-26.3C379.4,304.1,389.7,304.1,396.1,310.5z
		 M403.3,257.6l-31.2,31.2c-6.4,6.4-16.8,6.4-23.2,0s-6.4-16.8,0-23.2l31.2-31.2c6.4-6.4,16.8-6.4,23.2,0
		C409.7,240.8,409.7,251.2,403.3,257.6z"/>
	<path class="st1" d="M376.1,472c0,13.3-10.7,24-24,24h-160v16h160c22.1,0,40-17.9,40-40v-16h-16V472z"/>
	<path class="st1" d="M136.1,40c0-13.3,10.7-24,24-24h192c13.3,0,24,10.7,24,24v88h16V40c0-22.1-17.9-40-40-40h-192
		c-22.1,0-40,17.9-40,40v152h16V40z"/>
	<rect x="120.1" y="208" class="st1" width="16" height="16"/>
	<rect x="152.1" y="40" class="st1" width="208" height="16"/>
	<rect x="232.1" y="464" class="st1" width="48" height="16"/>
	<rect x="224.1" y="432" class="st1" width="80" height="16"/>
	<path class="st1" d="M352.1,152c4.4,0,8-3.6,8-8v-32c0-13.3-10.7-24-24-24h-160c-13.3,0-24,10.7-24,24v80c0,4.4,3.6,8,8,8
		s8-3.6,8-8v-80c0-4.4,3.6-8,8-8h160c4.4,0,8,3.6,8,8v32C344.1,148.4,347.7,152,352.1,152z"/>
	<path class="st1" d="M224.1,248c0,4.4,3.6,8,8,8h88c4.4,0,8-3.6,8-8s-3.6-8-8-8h-88C227.7,240,224.1,243.6,224.1,248z"/>
	<path class="st1" d="M208.1,120h-24c-4.4,0-8,3.6-8,8s3.6,8,8,8h19.1l5.6,11.1c1.4,2.7,4.1,4.4,7.2,4.4c1.2,0,2.5-0.3,3.6-0.8
		c4-2,5.6-6.8,3.6-10.7l-7.8-15.5C213.9,121.7,211.1,120,208.1,120z"/>
	<path class="st1" d="M308.1,220c0-6.6-5.4-12-12-12c-6.6,0-12,5.4-12,12c0,6.6,5.4,12,12,12C302.7,232,308.1,226.6,308.1,220z
		 M292.1,220c0-2.2,1.8-4,4-4c2.2,0,4,1.8,4,4c0,2.2-1.8,4-4,4C293.9,224,292.1,222.2,292.1,220z"/>
	<path class="st1" d="M236.1,292c-0.3-10.9-9.1-19.7-20-20h-18.6c8-12.2,18.7-23,29.7-34.1c3.8-3.6,7.4-7.4,10.8-11.3
		c2.1,3.3,5.8,5.5,10,5.5c6.6,0,12-5.4,12-12c0-5.3-3.5-9.8-8.3-11.4c0.1-0.1,0.1-0.2,0.2-0.3c8-13.7,6.6-31-3.6-43.1l-5.2-5.2h58.5
		l-8,24h-21.6c-4.4,0-8,3.6-8,8s3.6,8,8,8h27.3c3.4,0,6.5-2.2,7.6-5.5l13.3-40c0.3-0.8,0.4-1.7,0.4-2.5c0-4.4-3.6-8-8-8h-72.7
		c-4.1,0-7.4,3-7.9,7c-4.9-1.7-10.6-0.6-14.5,3.2c-0.1,0.1-0.1,0.1-0.2,0.2c-2,2-8.7,8.7-17.9,18c-18.9,19-48.3,48.8-69.8,70.2
		l-31.3,31.6c-9.8,8.4-16.1,20.2-17.7,33.1L66.7,426.5c-1.2,6.3-4.3,12-8.8,16.5L2.4,498.3c-3.2,3.1-3.3,8.1-0.2,11.3
		s8.1,3.3,11.3,0.2c0.1-0.1,0.1-0.1,0.2-0.2l55.4-55.4c6.9-6.9,11.5-15.7,13.3-25.3l13.5-115.4c0.5-4.8,1.6-9.5,3.4-14
		c2.6-5.3,6.1-10,10.4-13.9l31.4-31.7c21.4-21.4,50.9-51.2,69.8-70.2c7.7-7.8,13.7-13.8,16.6-16.7l9.5,9.5c5,6.9,5.5,16.1,1.3,23.5
		c-6.5,9.6-14.1,18.6-22.5,26.6c-22.7,23-46.2,46.7-47.7,85.1c0.3,17.3,4.8,34.3,13,49.5c5.1,10.2,8.8,21,11.1,32.1
		c4.6,25.4,2.1,51.5-7.4,75.5c-1.8,4,0,8.8,4.1,10.6c4,1.8,8.8,0,10.6-4.1c10.7-26.8,13.7-56.1,8.6-84.5c-2.5-12.5-6.7-24.6-12.3-36
		c-7.1-13-11.1-27.6-11.6-42.4c0.5-11.6,3.4-21.7,8-30.9V344h24c12.8,0.4,23.6-9.6,24-22.4c0-0.5,0-1.1,0-1.6
		c-0.1-6.5-2.7-12.7-7.3-17.2C234.9,299.6,236.1,295.8,236.1,292z M248.1,216c2.2,0,4,1.8,4,4c0,2.2-1.8,4-4,4c-2.2,0-4-1.8-4-4
		c0-0.3,0-0.6,0.1-0.9c0.7-0.9,1.4-1.8,2-2.6C246.8,216.2,247.4,216,248.1,216z M208.1,288h8c2.1,0.2,3.8,1.9,4,4
		c-0.2,2.1-1.9,3.8-4,4h-8V288z M217.5,328c-0.5,0-0.9,0-1.4,0h-8v-16h8c4.3-0.2,7.8,3.2,8,7.4c0,0.2,0,0.4,0,0.6
		C224.5,324,221.5,327.6,217.5,328z"/>
</g>
</svg>
