<?xml version="1.0" encoding="utf-8"?>
<!-- Generator: Adobe Illustrator 23.0.0, SVG Export Plug-In . SVG Version: 6.00 Build 0)  -->
<svg version="1.1" id="Capa_1" xmlns="http://www.w3.org/2000/svg" xmlns:xlink="http://www.w3.org/1999/xlink" x="0px" y="0px"
	 width="450.9px" height="512px" viewBox="0 0 450.9 512" style="enable-background:new 0 0 450.9 512;" xml:space="preserve">
<style type="text/css">
	.st0{fill:none;}
	.st1{fill:#F16228;}
</style>
<g>
	<path class="st0" d="M109.2,203.4c-0.3-2.5-0.6-5-0.8-7.5c0-0.3,0-0.5,0-0.8c-0.1-1-0.1-2-0.2-3c0-0.3,0-0.6,0-1
		c0-1.2-0.1-2.4-0.1-3.7v-15.9c-5-1.2-9.9-2.7-14.6-4.4c0,0-0.1,0-0.1,0c-1-0.4-2-0.8-3.1-1.2c-0.3-0.1-0.7-0.3-1-0.4
		c-0.8-0.3-1.5-0.6-2.2-0.9c-0.3-0.1-0.7-0.3-1-0.4c-0.2-0.1-0.4-0.2-0.7-0.3V197c0,2.7,1.6,5,3.9,6c0,0,0,0,0,0
		c0.9,0.4,1.8,0.6,2.7,0.6h17.2C109.2,203.6,109.2,203.5,109.2,203.4z"/>
	<path class="st0" d="M183.7,281c12.8,5.7,26.9,8.9,41.8,8.9c3.6,0,7.1-0.2,10.6-0.6c-6.5-2.9-11.5-8.9-12.7-16.4
		c-2.1-12,6-23.4,18-25.4l24.5-4.2c5.8-1,11.6,0.3,16.4,3.7c2.7,1.9,4.8,4.3,6.4,7.1l16.9-2.9c6.8-8.5,12.2-18.1,16-28.4
		c0-0.1,0.1-0.2,0.1-0.3c0.3-0.7,0.5-1.5,0.8-2.2c0-0.1,0-0.1,0.1-0.2c0.7-2.2,1.4-4.4,2-6.7c0-0.2,0.1-0.3,0.1-0.5
		c0.1-0.5,0.3-1.1,0.4-1.6c0.1-0.4,0.2-0.8,0.3-1.2c0.1-0.5,0.2-1,0.3-1.5c0.1-0.4,0.2-0.8,0.2-1.2c0.1-0.4,0.2-0.8,0.2-1.3
		c0.1-0.5,0.2-1,0.3-1.5c0.1-0.3,0.1-0.7,0.2-1c0.1-0.6,0.2-1.2,0.3-1.8c0-0.3,0.1-0.6,0.1-0.9c0.1-0.6,0.2-1.3,0.2-1.9
		c0-0.2,0.1-0.5,0.1-0.7c0.1-0.7,0.1-1.4,0.2-2.1c0-0.2,0-0.4,0.1-0.6c0.1-0.7,0.1-1.4,0.1-2.1c0-0.2,0-0.4,0-0.6
		c0-0.7,0.1-1.4,0.1-2.2c0-0.2,0-0.4,0-0.6c0-0.9,0-1.8,0-2.7v-30.9c0-0.8,0-1.6,0-2.4c-12.5-6.3-26.1-16.7-35.1-34
		c-11.3,8.1-34.2,23.1-63.2,35.6c-22.1,9.5-43.6,15.6-64,18.2c-0.2,0-0.5,0.1-0.7,0.1c-0.9,0.1-1.8,0.2-2.6,0.3c-1,0.1-2,0.2-3,0.3
		c-0.4,0-0.8,0.1-1.2,0.1c-12.1,1.1-23.8,0.9-35-0.5v13.1c0,0.9,0,1.8,0,2.7c0,0.2,0,0.4,0,0.6c0,0.7,0.1,1.4,0.1,2.2
		c0,0.2,0,0.4,0,0.6c0,0.7,0.1,1.4,0.1,2.1c0,0.2,0,0.4,0.1,0.6c0.1,0.7,0.1,1.4,0.2,2.1c0,0.2,0.1,0.5,0.1,0.7
		c0.1,0.6,0.2,1.3,0.2,1.9c0,0.3,0.1,0.6,0.1,0.9c0.1,0.6,0.2,1.2,0.3,1.8c0.1,0.4,0.1,0.7,0.2,1c0.1,0.5,0.2,1,0.3,1.5
		c0.1,0.4,0.2,0.8,0.2,1.3c0.1,0.4,0.2,0.8,0.2,1.2c0.1,0.5,0.2,1,0.3,1.5c0.1,0.4,0.2,0.8,0.3,1.2c0.1,0.6,0.3,1.1,0.4,1.6
		c0,0.2,0.1,0.3,0.1,0.5c0.6,2.3,1.3,4.5,2,6.7c0,0,0,0.1,0,0.1c0.3,0.7,0.5,1.5,0.8,2.2c0,0.1,0.1,0.1,0.1,0.2
		c9.4,25.6,28.8,46.5,53.5,57.8C183.1,280.7,183.4,280.9,183.7,281z"/>
	<path class="st0" d="M327.2,246.1c7.5-4.2,12.3-12.1,12.3-21.1v-6.4h-0.9c0,0.2-0.1,0.3-0.1,0.5c-0.4,1.3-0.7,2.5-1.1,3.7
		c-0.1,0.5-0.3,0.9-0.4,1.3c-0.4,1.2-0.8,2.4-1.2,3.6c-0.2,0.4-0.3,0.9-0.5,1.3c-0.4,0.9-0.7,1.9-1.1,2.8c-0.2,0.5-0.4,1.1-0.7,1.6
		c-0.4,1-0.9,2-1.3,3c-0.2,0.5-0.5,1.1-0.7,1.6c-0.5,1-1,2.1-1.5,3.1c-0.3,0.6-0.6,1.1-0.9,1.6c-0.4,0.8-0.8,1.5-1.3,2.3
		C327.5,245.4,327.4,245.8,327.2,246.1z"/>
	<path class="st0" d="M155.3,281.6c-2.2-1.7-4.4-3.4-6.5-5.2c-0.1-0.1-0.3-0.3-0.4-0.4c-1.2-1.1-2.4-2.2-3.6-3.3
		c-0.2-0.2-0.4-0.3-0.5-0.5c-1.1-1.1-2.2-2.2-3.3-3.3c-0.2-0.2-0.4-0.4-0.6-0.6c-1.1-1.2-2.2-2.4-3.3-3.6c-0.1-0.2-0.3-0.3-0.4-0.5
		c-0.6-0.7-1.1-1.3-1.7-2c-0.3-0.3-0.5-0.7-0.8-1c-0.8-1-1.6-2.1-2.4-3.1c-0.3-0.5-0.7-0.9-1-1.4c-0.7-0.9-1.3-1.9-2-2.8
		c-0.4-0.5-0.7-1.1-1.1-1.6c-0.5-0.8-1.1-1.6-1.6-2.5c-0.4-0.7-0.9-1.4-1.3-2.1c-0.3-0.6-0.7-1.1-1-1.7c-0.6-1-1.1-2-1.6-3
		c-0.3-0.5-0.6-1.1-0.9-1.6c-0.5-1-1.1-2.1-1.6-3.1c-0.2-0.5-0.5-1-0.7-1.5c-0.4-0.9-0.8-1.9-1.3-2.8c-0.3-0.6-0.5-1.2-0.7-1.8
		c-0.4-1-0.8-2-1.2-3c-0.2-0.4-0.3-0.9-0.5-1.3c-0.4-1.2-0.9-2.4-1.3-3.7c-0.1-0.4-0.3-0.9-0.4-1.3c-0.4-1.3-0.8-2.5-1.1-3.8
		c0-0.2-0.1-0.3-0.1-0.5H93.7V245c0,13.3,9,24.9,22,28.2l42.6,10.6c-1-0.7-1.9-1.4-2.9-2.1C155.3,281.6,155.3,281.6,155.3,281.6z"/>
	<path class="st0" d="M359.1,203.6c0,0,0.1,0,0.1,0c3.5-0.2,6.3-3.1,6.3-6.6v-36.7c0,0,0-0.1,0-0.1c0,0,0,0,0,0.1
		c-0.1,0.1-0.2,0.3-0.3,0.4c-0.1,0.1-0.1,0.2-0.2,0.2c-0.2,0.2-0.4,0.4-0.6,0.6c-1.5,1.4-3.6,2.1-5.7,2c0,0,0,0,0,0s0,0,0,0
		c-0.8-0.1-7.2-0.6-15.9-3.3v27.3c0,1.2,0,2.5-0.1,3.7c0,0.3,0,0.6,0,1c0,1-0.1,2-0.2,3c0,0.3,0,0.5,0,0.8c-0.2,2.5-0.4,5-0.8,7.5
		c0,0.1,0,0.2,0,0.3h17C358.9,203.7,359,203.6,359.1,203.6z"/>
	<path class="st0" d="M351.9,239.2c-4.8,12.5-16,22-29.9,24.4l-8.5,1.5c-0.9,1-1.8,2-2.8,3c-0.1,0.1-0.3,0.3-0.4,0.4
		c-1.9,2-3.9,3.9-5.9,5.8c-0.1,0.1-0.1,0.1-0.2,0.2c-1.3,1.2-2.6,2.3-3.9,3.4c-0.2,0.1-0.3,0.3-0.5,0.4c-1.2,1-2.5,2-3.8,3
		c-0.2,0.1-0.4,0.3-0.6,0.4c-0.5,0.3-0.9,0.7-1.4,1l36.1-9.4c12.8-3.3,21.7-14.9,21.7-28.1h0V239.2z"/>
	<rect x="105.1" y="432" class="st0" width="52.9" height="21.4"/>
	<path class="st0" d="M273.6,259.3c-1.2-0.8-2.6-1.3-4-1.3c-0.4,0-0.8,0-1.2,0.1l-24.5,4.2c-3.8,0.7-6.4,4.3-5.7,8.1
		c0.6,3.4,3.5,5.8,6.9,5.8c0.4,0,0.8,0,1.2-0.1l24.5-4.2c1.8-0.3,3.5-1.3,4.5-2.9c1.1-1.5,1.5-3.4,1.2-5.2
		C276.1,262,275.1,260.4,273.6,259.3z"/>
	<path class="st0" d="M286.2,328.4l-46.6,44.2l19.3,6.6c7.5,2.6,15.7,0.4,20.9-5.6l32.6-37.2l-25.8-8.1
		C286.5,328.3,286.4,328.3,286.2,328.4z"/>
	<path class="st0" d="M262,305v-5.9c-0.5,0.2-1,0.3-1.5,0.5c-0.2,0.1-0.5,0.2-0.7,0.2c-1.5,0.5-3,0.9-4.5,1.3
		c-0.3,0.1-0.5,0.1-0.8,0.2c-0.8,0.2-1.7,0.4-2.5,0.6c-0.2,0.1-0.4,0.1-0.7,0.1c-1.4,0.3-2.9,0.6-4.4,0.9c-0.5,0.1-1,0.2-1.5,0.3
		c-0.7,0.1-1.4,0.2-2.1,0.4c-1.1,0.2-2.1,0.3-3.2,0.4c-0.6,0.1-1.1,0.1-1.7,0.2c-0.9,0.1-1.8,0.2-2.7,0.3c-0.4,0-0.8,0.1-1.2,0.1
		c-1.3,0.1-2.6,0.2-3.9,0.2c-0.4,0-0.7,0-1.1,0c-1.4,0-2.7,0.1-4.1,0.1s-2.8,0-4.1-0.1c-0.4,0-0.7,0-1.1,0c-1.3-0.1-2.6-0.1-3.9-0.2
		c-0.4,0-0.8-0.1-1.2-0.1c-0.9-0.1-1.8-0.2-2.7-0.3c-0.6-0.1-1.1-0.1-1.7-0.2c-1.1-0.1-2.1-0.3-3.2-0.4c-0.7-0.1-1.4-0.2-2.1-0.4
		c-0.5-0.1-1-0.2-1.5-0.3c-1.5-0.3-2.9-0.6-4.4-0.9c-0.2,0-0.4-0.1-0.7-0.1c-0.8-0.2-1.7-0.4-2.5-0.6c-0.3-0.1-0.5-0.1-0.8-0.2
		c-1.5-0.4-3-0.8-4.5-1.3c-0.2-0.1-0.5-0.2-0.7-0.2c-0.5-0.2-1-0.3-1.5-0.5v5.9c0,7-2.7,13.7-7.4,18.7l44,41.7l44-41.7
		C264.8,318.7,262,312,262,305z"/>
	<path class="st0" d="M164.3,328.3l-25.8,8.1l34.8,39.7c3.9,4.4,9.9,6,15.5,4.1l22.5-7.7l-46.6-44.2
		C164.6,328.3,164.4,328.3,164.3,328.3z"/>
	<path class="st1" d="M431.1,377.4c-13-17.3-30.8-29.8-51.6-35.9L328,325.5c0,0,0,0,0,0L291.1,314c-3.3-1-6.8-0.9-9.9,0.2
		c-2.6-2.3-4.2-5.7-4.2-9.3v-2.3l56.9-14.8c19.4-5,32.9-22.6,32.9-42.6v-28.1c8-3.2,13.7-11,13.7-20.1v-36.7c0-9.2-5.6-17-13.7-20.1
		v-7.3c0-5.7-0.4-11.3-1.1-16.9c-0.5-4.1-4.3-7-8.4-6.5c-4.1,0.5-7,4.3-6.5,8.4c0.6,5,0.9,10,0.9,15v13.3v0.9c-4-1-9.2-2.5-14.7-5.1
		c-0.3-0.1-0.5-0.2-0.8-0.4c-10.6-5-22.4-13.5-30.1-27.9c-0.1-0.2-0.2-0.4-0.3-0.7c-0.3-0.6-0.6-1.1-0.8-1.7
		c-0.2-0.4-0.4-0.9-0.6-1.3c-0.2-0.4-0.4-0.8-0.6-1.3c-0.4-0.9-0.8-1.9-1.1-2.8c-0.8-2.3-2.7-4-5-4.6c-0.6-0.2-1.2-0.3-1.8-0.3
		c-0.1,0-0.2,0-0.3,0c-0.2,0-0.4,0-0.5,0c-1.3,0.1-2.5,0.6-3.6,1.3c-0.1,0.1-0.3,0.2-0.4,0.3c0,0-0.1,0.1-0.3,0.2c0,0,0,0-0.1,0
		c-0.1,0-0.1,0.1-0.2,0.2c-0.1,0-0.1,0.1-0.2,0.1c-0.1,0.1-0.1,0.1-0.2,0.2c-0.1,0.1-0.2,0.2-0.4,0.3c-0.1,0-0.1,0.1-0.2,0.1
		c-0.2,0.1-0.4,0.3-0.6,0.4c0,0-0.1,0.1-0.1,0.1c-13.9,10.4-91.2,65.2-165.4,54.8c-0.1,0-0.3,0-0.4-0.1c-1.2-0.2-2.4-0.4-3.6-0.6
		c-0.3-0.1-0.7-0.1-1-0.2c-1-0.2-2.1-0.4-3.1-0.6c-0.3-0.1-0.7-0.1-1-0.2c-1.2-0.3-2.4-0.5-3.5-0.8c-0.5-0.1-1-0.2-1.4-0.4
		c-0.7-0.2-1.5-0.4-2.2-0.6c-0.6-0.2-1.2-0.3-1.7-0.5c-0.8-0.2-1.6-0.5-2.4-0.7c-0.7-0.2-1.4-0.5-2.1-0.7c-0.8-0.3-1.6-0.6-2.4-0.8
		c-0.5-0.2-0.9-0.3-1.4-0.5c-1.1-0.4-2.1-0.8-3.2-1.3c-0.1,0-0.2-0.1-0.3-0.1v-3.7v-14.6c0-65,52.9-117.9,117.9-117.9H234
		c47.1,0,89.7,28,108.3,71.3c1.6,3.8,6.1,5.6,9.9,3.9c3.8-1.6,5.6-6.1,3.9-9.9C335.1,31.5,287.1,0,234,0h-22.4
		C138.3,0,78.7,59.6,78.7,132.9v10.4c-5.2,4-8.4,10.3-8.4,17.1V197c0,6.9,3.3,13.1,8.4,17.1V245c0,20.3,13.7,37.8,33.4,42.7
		l61.8,15.4v1.9c0,3.6-1.6,7-4.2,9.3c-3.1-1.1-6.6-1.3-9.9-0.2l-36.8,11.5c0,0,0,0,0,0l-51.5,16.1c-28.6,8.4-51.7,29-63.4,56.3
		c-0.9,2.1-1.7,4.3-2.5,6.4c-1.4,3.9,0.7,8.2,4.6,9.6c3.9,1.4,8.2-0.7,9.6-4.6c0.6-1.8,1.4-3.7,2.1-5.5c10-23.3,29.6-40.7,53.9-47.9
		c0,0,0.1,0,0.1,0l46.9-14.6L162,386c5.7,6.5,13.8,10,22.1,10c3.2,0,6.4-0.5,9.5-1.6l31.9-10.9l28.7,9.8c3.7,1.3,7.4,1.9,11.2,1.9
		c9.7,0,19.2-4.1,25.9-11.8l37-42.2l46.9,14.6c0,0,0.1,0,0.1,0c17.7,5.2,32.8,15.7,43.9,30.5c11,14.7,16.9,32.3,16.9,50.7V496
		c0,0.5-0.4,1-1,1h-40.5v-68.6c0-4.1-3.4-7.5-7.5-7.5s-7.5,3.4-7.5,7.5V497H71.6v-68.6c0-4.1-3.4-7.5-7.5-7.5s-7.5,3.4-7.5,7.5V497
		H16c-0.5,0-1-0.4-1-1v-54.1c0-4.1-3.4-7.5-7.5-7.5S0,437.8,0,441.9V496c0,8.8,7.2,16,16,16h418.9c8.8,0,16-7.2,16-16v-58.9
		C450.9,415.4,444.1,394.8,431.1,377.4z M330.2,273.3l-36.1,9.4c0.5-0.3,0.9-0.7,1.4-1c0.2-0.1,0.4-0.3,0.6-0.4c1.3-1,2.5-2,3.8-3
		c0.2-0.1,0.3-0.3,0.5-0.4c1.3-1.1,2.6-2.2,3.9-3.4c0.1-0.1,0.1-0.1,0.2-0.2c2-1.9,4-3.8,5.9-5.8c0.1-0.1,0.3-0.3,0.4-0.4
		c0.9-1,1.9-2,2.8-3l8.5-1.5c14-2.4,25.1-11.9,29.9-24.4v6h0C351.9,258.5,342.9,270,330.2,273.3z M341.8,203.4
		c0.3-2.5,0.6-5,0.8-7.5c0-0.3,0-0.5,0-0.8c0.1-1,0.1-2,0.2-3c0-0.3,0-0.6,0-1c0-1.2,0.1-2.4,0.1-3.7v-27.3
		c8.8,2.6,15.1,3.2,15.9,3.3c0,0,0,0,0,0s0,0,0,0c2.1,0.2,4.1-0.6,5.7-2c0.2-0.2,0.4-0.4,0.6-0.6c0.1-0.1,0.1-0.2,0.2-0.2
		c0.1-0.1,0.2-0.3,0.3-0.4c0,0,0,0,0-0.1c0,0,0,0.1,0,0.1V197c0,3.6-2.8,6.5-6.3,6.6c0,0-0.1,0-0.1,0c-0.1,0-0.2,0-0.4,0h-17
		C341.7,203.6,341.8,203.5,341.8,203.4z M329.9,241.2c0.5-1,1-2,1.5-3.1c0.3-0.5,0.5-1,0.7-1.6c0.5-1,0.9-2,1.3-3
		c0.2-0.5,0.4-1.1,0.7-1.6c0.4-0.9,0.7-1.8,1.1-2.8c0.2-0.4,0.3-0.9,0.5-1.3c0.4-1.2,0.8-2.4,1.2-3.6c0.1-0.4,0.3-0.9,0.4-1.3
		c0.4-1.2,0.8-2.5,1.1-3.7c0-0.2,0.1-0.3,0.1-0.5h0.9v6.4c0,9-4.9,16.9-12.3,21.1c0.2-0.3,0.4-0.7,0.6-1c0.4-0.8,0.9-1.5,1.3-2.3
		C329.3,242.3,329.6,241.7,329.9,241.2z M89.3,203.1C89.3,203.1,89.3,203.1,89.3,203.1c-2.3-1.1-3.9-3.4-3.9-6.1v-33.1
		c0.2,0.1,0.4,0.2,0.7,0.3c0.3,0.2,0.7,0.3,1,0.4c0.7,0.3,1.5,0.6,2.2,0.9c0.3,0.1,0.7,0.3,1,0.4c1,0.4,2,0.8,3.1,1.2
		c0,0,0.1,0,0.1,0c4.8,1.7,9.6,3.2,14.6,4.4v15.9c0,1.2,0,2.5,0.1,3.7c0,0.3,0,0.6,0,1c0,1,0.1,2,0.2,3c0,0.3,0,0.5,0,0.8
		c0.2,2.5,0.4,5,0.8,7.5c0,0.1,0,0.2,0,0.3H92C91.1,203.7,90.1,203.5,89.3,203.1z M115.7,273.1c-13-3.2-22-14.8-22-28.2v-26.3h18.6
		c0,0.2,0.1,0.3,0.1,0.5c0.4,1.3,0.7,2.6,1.1,3.8c0.1,0.4,0.3,0.9,0.4,1.3c0.4,1.2,0.8,2.5,1.3,3.7c0.2,0.4,0.3,0.9,0.5,1.3
		c0.4,1,0.8,2,1.2,3c0.2,0.6,0.5,1.2,0.7,1.8c0.4,0.9,0.8,1.9,1.3,2.8c0.2,0.5,0.5,1,0.7,1.5c0.5,1.1,1,2.1,1.6,3.1
		c0.3,0.5,0.6,1.1,0.9,1.6c0.5,1,1.1,2,1.6,3c0.3,0.6,0.7,1.1,1,1.7c0.4,0.7,0.9,1.4,1.3,2.1c0.5,0.8,1,1.6,1.6,2.5
		c0.4,0.5,0.7,1.1,1.1,1.6c0.7,0.9,1.3,1.9,2,2.8c0.3,0.5,0.7,0.9,1,1.4c0.8,1,1.6,2.1,2.4,3.1c0.3,0.3,0.5,0.7,0.8,1
		c0.6,0.7,1.1,1.3,1.7,2c0.1,0.2,0.3,0.3,0.4,0.5c1.1,1.2,2.1,2.4,3.3,3.6c0.2,0.2,0.4,0.4,0.6,0.6c1.1,1.1,2.2,2.2,3.3,3.3
		c0.2,0.2,0.4,0.3,0.5,0.5c1.2,1.1,2.4,2.2,3.6,3.3c0.1,0.1,0.3,0.3,0.4,0.4c2.1,1.8,4.2,3.5,6.5,5.2c0,0,0.1,0.1,0.1,0.1
		c1,0.7,1.9,1.4,2.9,2.1L115.7,273.1z M129.4,222.8c0-0.1-0.1-0.1-0.1-0.2c-0.3-0.7-0.5-1.5-0.8-2.2c0,0,0-0.1,0-0.1
		c-0.7-2.2-1.4-4.5-2-6.7c0-0.2-0.1-0.3-0.1-0.5c-0.1-0.5-0.3-1.1-0.4-1.6c-0.1-0.4-0.2-0.8-0.3-1.2c-0.1-0.5-0.2-1-0.3-1.5
		c-0.1-0.4-0.2-0.8-0.2-1.2c-0.1-0.4-0.2-0.8-0.2-1.3c-0.1-0.5-0.2-1-0.3-1.5c-0.1-0.3-0.1-0.7-0.2-1c-0.1-0.6-0.2-1.2-0.3-1.8
		c0-0.3-0.1-0.6-0.1-0.9c-0.1-0.6-0.2-1.3-0.2-1.9c0-0.2-0.1-0.5-0.1-0.7c-0.1-0.7-0.1-1.4-0.2-2.1c0-0.2,0-0.4-0.1-0.6
		c-0.1-0.7-0.1-1.4-0.1-2.1c0-0.2,0-0.4,0-0.6c0-0.7-0.1-1.4-0.1-2.2c0-0.2,0-0.4,0-0.6c0-0.9,0-1.8,0-2.7v-13.1
		c11.2,1.4,22.9,1.6,35,0.5c0.4,0,0.8-0.1,1.2-0.1c1-0.1,2-0.2,3-0.3c0.9-0.1,1.7-0.2,2.6-0.3c0.2,0,0.5-0.1,0.7-0.1
		c20.4-2.6,41.8-8.7,64-18.2c29-12.4,51.8-27.5,63.2-35.6c9,17.3,22.5,27.7,35.1,34c0,0.8,0,1.6,0,2.4v30.9c0,0.9,0,1.8,0,2.7
		c0,0.2,0,0.4,0,0.6c0,0.7,0,1.4-0.1,2.2c0,0.2,0,0.4,0,0.6c0,0.7-0.1,1.4-0.1,2.1c0,0.2,0,0.4-0.1,0.6c-0.1,0.7-0.1,1.4-0.2,2.1
		c0,0.2-0.1,0.5-0.1,0.7c-0.1,0.6-0.2,1.3-0.2,1.9c0,0.3-0.1,0.6-0.1,0.9c-0.1,0.6-0.2,1.2-0.3,1.8c-0.1,0.4-0.1,0.7-0.2,1
		c-0.1,0.5-0.2,1-0.3,1.5c-0.1,0.4-0.2,0.8-0.2,1.3c-0.1,0.4-0.2,0.8-0.2,1.2c-0.1,0.5-0.2,1-0.3,1.5c-0.1,0.4-0.2,0.8-0.3,1.2
		c-0.1,0.5-0.3,1.1-0.4,1.6c0,0.2-0.1,0.3-0.1,0.5c-0.6,2.3-1.3,4.5-2,6.7c0,0.1,0,0.1-0.1,0.2c-0.2,0.7-0.5,1.5-0.8,2.2
		c0,0.1-0.1,0.2-0.1,0.3c-3.8,10.4-9.3,19.9-16,28.4l-16.9,2.9c-1.6-2.8-3.7-5.2-6.4-7.1c-4.8-3.4-10.6-4.7-16.4-3.7l-24.5,4.2
		c-12,2.1-20,13.5-18,25.4c1.3,7.5,6.2,13.5,12.7,16.4c-3.5,0.4-7.1,0.6-10.6,0.6c-14.9,0-29-3.2-41.8-8.9c-0.3-0.1-0.6-0.3-0.8-0.4
		C158.2,269.3,138.8,248.4,129.4,222.8z M275.3,269.1c-1.1,1.5-2.7,2.5-4.5,2.9l-24.5,4.2c-0.4,0.1-0.8,0.1-1.2,0.1
		c-3.4,0-6.3-2.4-6.9-5.8c-0.7-3.8,1.9-7.4,5.7-8.1l24.5-4.2c0.4-0.1,0.8-0.1,1.2-0.1c1.4,0,2.8,0.4,4,1.3c1.5,1.1,2.5,2.7,2.9,4.5
		C276.8,265.7,276.3,267.5,275.3,269.1z M188.7,380.3c-5.5,1.9-11.6,0.3-15.5-4.1l-34.8-39.7l25.8-8.1c0.1,0,0.3,0,0.4,0.1
		l46.6,44.2L188.7,380.3z M225.5,365.3l-44-41.7c4.7-5,7.4-11.7,7.4-18.7v-5.9c0.5,0.2,1,0.3,1.5,0.5c0.2,0.1,0.5,0.2,0.7,0.2
		c1.5,0.5,3,0.9,4.5,1.3c0.3,0.1,0.5,0.1,0.8,0.2c0.8,0.2,1.7,0.4,2.5,0.6c0.2,0.1,0.4,0.1,0.7,0.1c1.4,0.3,2.9,0.6,4.4,0.9
		c0.5,0.1,1,0.2,1.5,0.3c0.7,0.1,1.4,0.2,2.1,0.4c1.1,0.2,2.1,0.3,3.2,0.4c0.6,0.1,1.1,0.1,1.7,0.2c0.9,0.1,1.8,0.2,2.7,0.3
		c0.4,0,0.8,0.1,1.2,0.1c1.3,0.1,2.6,0.2,3.9,0.2c0.4,0,0.7,0,1.1,0c1.4,0,2.7,0.1,4.1,0.1s2.8,0,4.1-0.1c0.4,0,0.7,0,1.1,0
		c1.3-0.1,2.6-0.1,3.9-0.2c0.4,0,0.8-0.1,1.2-0.1c0.9-0.1,1.8-0.2,2.7-0.3c0.6-0.1,1.1-0.1,1.7-0.2c1.1-0.1,2.1-0.3,3.2-0.4
		c0.7-0.1,1.4-0.2,2.1-0.4c0.5-0.1,1-0.2,1.5-0.3c1.5-0.3,2.9-0.6,4.4-0.9c0.2,0,0.4-0.1,0.7-0.1c0.8-0.2,1.7-0.4,2.5-0.6
		c0.3-0.1,0.5-0.1,0.8-0.2c1.5-0.4,3-0.8,4.5-1.3c0.2-0.1,0.5-0.2,0.7-0.2c0.5-0.2,1-0.3,1.5-0.5v5.9c0,7,2.7,13.7,7.4,18.7
		L225.5,365.3z M279.9,373.6c-5.2,6-13.4,8.2-20.9,5.6l-19.3-6.6l46.6-44.2c0.1-0.1,0.3-0.1,0.4-0.1l25.8,8.1L279.9,373.6z"/>
	<path class="st1" d="M159.8,468.4c7.3,0,13.2-5.9,13.2-13.2v-25c0-7.3-5.9-13.2-13.2-13.2h-56.5c-7.3,0-13.2,5.9-13.2,13.2v25
		c0,7.3,5.9,13.2,13.2,13.2H159.8z M105.1,432H158v21.4h-52.9V432z"/>
</g>
</svg>
