<?xml version="1.0" encoding="utf-8"?>
<!-- Generator: Adobe Illustrator 23.0.0, SVG Export Plug-In . SVG Version: 6.00 Build 0)  -->
<svg version="1.1" id="Capa_1" xmlns="http://www.w3.org/2000/svg" xmlns:xlink="http://www.w3.org/1999/xlink" x="0px" y="0px"
	 width="512px" height="512px" viewBox="0 0 512 512" style="enable-background:new 0 0 512 512;" xml:space="preserve">
<style type="text/css">
	.st0{fill:none;}
	.st1{fill:#F16228;}
</style>
<g>
	<path class="st0" d="M16,475.2c0,11.5,9.3,20.8,20.8,20.8h438.4c11.5,0,20.8-9.3,20.8-20.8V108.2H16V475.2z M159.8,341.2
		c1.3-2.9,4.2-4.9,7.4-4.9h38.7V166.6c0-4.4,3.6-8,8-8h84.3c4.4,0,8,3.6,8,8v169.8h38.7h0c3.2,0,6.1,1.9,7.4,4.9
		c1.3,2.9,0.6,6.4-1.6,8.7l-88.9,93.2c-1.5,1.6-3.6,2.5-5.8,2.5s-4.3-0.9-5.8-2.5l-88.9-93.2C159.1,347.6,158.5,344.2,159.8,341.2z"
		/>
	<path class="st0" d="M326.2,352.4h-28.1c-4.4,0-8-3.6-8-8V174.6h-68.3v169.8c0,4.4-3.6,8-8,8h-28.1L256,426L326.2,352.4z"/>
	<path class="st0" d="M475.2,16H36.8C25.3,16,16,25.3,16,36.8v55.4h480V36.8C496,25.3,486.7,16,475.2,16z M103.5,62.1H62.4
		c-4.4,0-8-3.6-8-8c0-4.4,3.6-8,8-8h41.1c4.4,0,8,3.6,8,8S108,62.1,103.5,62.1z M185.7,62.1H141c-4.4,0-8-3.6-8-8c0-4.4,3.6-8,8-8
		h44.7c4.4,0,8,3.6,8,8S190.1,62.1,185.7,62.1z M434.4,62.1H223.2c-4.4,0-8-3.6-8-8c0-4.4,3.6-8,8-8h211.2c4.4,0,8,3.6,8,8
		S438.9,62.1,434.4,62.1z"/>
	<path class="st1" d="M250.2,443.1c1.5,1.6,3.6,2.5,5.8,2.5s4.3-0.9,5.8-2.5l88.9-93.2c2.2-2.3,2.8-5.7,1.6-8.7
		c-1.3-2.9-4.2-4.9-7.4-4.9h0h-38.7V166.6c0-4.4-3.6-8-8-8h-84.3c-4.4,0-8,3.6-8,8v169.8h-38.7c-3.2,0-6.1,1.9-7.4,4.9
		c-1.3,2.9-0.6,6.4,1.6,8.7L250.2,443.1z M213.9,352.4c4.4,0,8-3.6,8-8V174.6h68.3v169.8c0,4.4,3.6,8,8,8h28.1L256,426l-70.2-73.6
		H213.9z"/>
	<path class="st1" d="M434.4,46.1H223.2c-4.4,0-8,3.6-8,8c0,4.4,3.6,8,8,8h211.2c4.4,0,8-3.6,8-8S438.9,46.1,434.4,46.1z"/>
	<path class="st1" d="M185.7,46.1H141c-4.4,0-8,3.6-8,8c0,4.4,3.6,8,8,8h44.7c4.4,0,8-3.6,8-8S190.1,46.1,185.7,46.1z"/>
	<path class="st1" d="M103.5,46.1H62.4c-4.4,0-8,3.6-8,8c0,4.4,3.6,8,8,8h41.1c4.4,0,8-3.6,8-8S108,46.1,103.5,46.1z"/>
	<path class="st1" d="M475.2,0H36.8C16.5,0,0,16.5,0,36.8v438.4C0,495.5,16.5,512,36.8,512h438.4c20.3,0,36.8-16.5,36.8-36.8V36.8
		C512,16.5,495.5,0,475.2,0z M496,475.2c0,11.5-9.3,20.8-20.8,20.8H36.8c-11.5,0-20.8-9.3-20.8-20.8V108.2h480V475.2z M496,92.2H16
		V36.8C16,25.3,25.3,16,36.8,16h438.4c11.5,0,20.8,9.3,20.8,20.8V92.2z"/>
</g>
</svg>
