<?xml version="1.0" encoding="utf-8"?>
<!-- Generator: Adobe Illustrator 23.0.0, SVG Export Plug-In . SVG Version: 6.00 Build 0)  -->
<svg version="1.1" id="Layer_1" xmlns="http://www.w3.org/2000/svg" xmlns:xlink="http://www.w3.org/1999/xlink" x="0px" y="0px"
	 width="327.7px" height="409.6px" viewBox="0 0 327.7 409.6" style="enable-background:new 0 0 327.7 409.6;" xml:space="preserve"
	>
<style type="text/css">
	.st0{fill:none;}
</style>
<g>
	<circle class="st0" cx="163.8" cy="163.8" r="51.2"/>
	<path class="st0" d="M269.5,67.1C216,8.7,125.3,4.8,67,58.3S4.7,202.4,58.2,260.8l105.7,122.9l105.7-123v0.1
		C319.8,206,319.8,121.9,269.5,67.1z M163.8,235.5c-39.6,0-71.7-32.1-71.7-71.7s32.1-71.7,71.7-71.7s71.7,32.1,71.7,71.7
		S203.4,235.5,163.8,235.5z"/>
	<path d="M163.8,0C73.4,0,0,73.4,0,163.8c-0.1,40.8,15.1,80.1,42.6,110.2l113.5,132c3.7,4.3,10.1,4.8,14.4,1.1
		c0.4-0.3,0.8-0.7,1.1-1.1l113.5-132c27.5-30.1,42.7-69.4,42.6-110.2C327.7,73.4,254.3,0,163.8,0z M269.5,260.8v-0.1l-105.7,123
		L58.2,260.8C4.7,202.4,8.6,111.8,67,58.3s149-49.6,202.6,8.8C319.8,121.9,319.8,206,269.5,260.8z"/>
	<path d="M163.8,92.2c-39.6,0-71.7,32.1-71.7,71.7s32.1,71.7,71.7,71.7s71.7-32.1,71.7-71.7S203.4,92.2,163.8,92.2z M163.8,215
		c-28.3,0-51.2-22.9-51.2-51.2s22.9-51.2,51.2-51.2s51.2,22.9,51.2,51.2S192.1,215,163.8,215z"/>
</g>
</svg>
