<?xml version="1.0" encoding="utf-8"?>
<!-- Generator: Adobe Illustrator 23.0.0, SVG Export Plug-In . SVG Version: 6.00 Build 0)  -->
<svg version="1.1" id="Layer_1" xmlns="http://www.w3.org/2000/svg" xmlns:xlink="http://www.w3.org/1999/xlink" x="0px" y="0px"
	 width="177.1px" height="37.3px" viewBox="0 0 177.1 37.3" style="enable-background:new 0 0 177.1 37.3;" xml:space="preserve">
<style type="text/css">
	.st0{fill:#062B5E;}
	.st1{font-family:'Montserrat-Medium';}
	.st2{font-size:7.561px;}
	.st3{fill:none;}
	.st4{fill:url(#SVGID_1_);}
	.st5{fill:url(#SVGID_2_);}
	.st6{fill:url(#SVGID_3_);}
</style>
<text transform="matrix(1 0 0 1 23.3658 35.3432)" class="st0 st1 st2">Ex</text>
<text transform="matrix(1 0 0 1 32.4694 35.3432)" class="st0 st1 st2">c</text>
<text transform="matrix(1 0 0 1 36.5905 35.3432)" class="st0 st1 st2">eeding eC</text>
<text transform="matrix(1 0 0 1 74.3292 35.3432)" class="st0 st1 st2">ommerc</text>
<text transform="matrix(1 0 0 1 106.4733 35.3432)" class="st0 st1 st2">e Ex</text>
<text transform="matrix(1 0 0 1 121.9513 35.3432)" class="st0 st1 st2">c</text>
<text transform="matrix(1 0 0 1 126.0724 35.3432)" class="st0 st1 st2">ellenc</text>
<text transform="matrix(1 0 0 1 148.7496 35.3432)" class="st0 st1 st2">e</text>
<g>
	<path class="st3" d="M89.7,11.5l-4.5,9.7h0.6l0,0h8l0,0h0.6L89.7,11.5z M87.3,20.2l2.4-5.2l2.4,5.2H87.3z"/>
	<polygon points="81.6,0.5 63.9,0.5 63.9,5.5 69.9,5.5 69.9,25.6 75.6,25.6 75.6,5.5 81.6,5.5 	"/>
	<polygon points="30.2,25.6 44.5,25.6 44.5,20.6 35.9,20.6 35.9,15.5 44.2,15.5 44.2,10.5 35.9,10.5 35.9,5.5 44.5,5.5 44.5,0.5 
		30.2,0.5 	"/>
	<polygon points="47.8,25.6 62.2,25.6 62.2,20.6 53.6,20.6 53.6,15.5 61.9,15.5 61.9,10.5 53.6,10.5 53.6,5.5 62.2,5.5 62.2,0.5 
		47.8,0.5 	"/>
	<polygon points="19.5,0.5 13.9,15 8.3,0.5 2.3,0.5 0,25.6 5.7,25.6 6.9,10.7 7.1,10.7 12.2,25.4 15.6,25.4 20.8,10.7 20.9,10.7 
		22.1,25.6 27.8,25.6 25.6,0.5 	"/>
	<linearGradient id="SVGID_1_" gradientUnits="userSpaceOnUse" x1="86.4347" y1="15.7413" x2="91.2747" y2="20.2713">
		<stop  offset="0" style="stop-color:#E5380D"/>
		<stop  offset="1" style="stop-color:#ED7E03"/>
	</linearGradient>
	<polygon class="st4" points="87.3,20.2 92.1,20.2 89.7,15.1 	"/>
	<path d="M77.9,25.6h23.5L89.7,0.5L77.9,25.6z M93.7,21.2h-8l0,0h-0.6l4.5-9.7l4.5,9.7L93.7,21.2L93.7,21.2z"/>
	<rect x="171.4" y="0.5" width="5.7" height="25.1"/>
	<polygon points="162,25.6 167.7,25.6 167.7,0.5 162,0.5 162,10.5 153.9,10.5 153.9,0.5 148.2,0.5 148.2,25.6 153.9,25.6 
		153.9,15.5 162,15.5 	"/>
	<path d="M139.6,11.1c-2.9-1.2-5.2-2.2-5.2-3.6c0-1.4,1-2.3,3-2.3c2.6,0,5.1,1.7,5.1,1.7l2.3-4.6c0,0-3.2-2.4-7.8-2.4
		c-4.1,0-8.2,3-8.2,7.7c0,2.6,1.8,5,4.8,6.5c3,1.5,5.7,2.3,5.7,4.1c0,2.3-2.4,2.5-3.6,2.5c-2.8,0-6.2-2.8-6.2-2.8l-2.9,4.8
		c0,0,3.6,3.3,9.4,3.3c4.9,0,9.5-2.1,9.5-8.1C145.5,14.7,142.4,12.3,139.6,11.1z"/>
	<polygon points="118.9,16.1 118.9,16.1 108.9,0.5 103.1,0.5 103.1,25.6 108.9,25.6 108.9,10 108.9,10 118.9,25.6 124.7,25.6 
		124.7,0.5 118.9,0.5 	"/>
	<linearGradient id="SVGID_2_" gradientUnits="userSpaceOnUse" x1="9.7972" y1="31.1138" x2="10.2172" y2="35.0838">
		<stop  offset="0" style="stop-color:#E5380D"/>
		<stop  offset="1" style="stop-color:#ED7E03"/>
	</linearGradient>
	<rect y="32.2" class="st5" width="20.1" height="2.1"/>
	<linearGradient id="SVGID_3_" gradientUnits="userSpaceOnUse" x1="166.8578" y1="31.1137" x2="167.2778" y2="35.0837">
		<stop  offset="0" style="stop-color:#E5380D"/>
		<stop  offset="1" style="stop-color:#ED7E03"/>
	</linearGradient>
	<rect x="157.1" y="32.2" class="st6" width="20.1" height="2.1"/>
</g>
</svg>
