<?xml version="1.0" encoding="utf-8"?>
<!-- Generator: Adobe Illustrator 25.2.1, SVG Export Plug-In . SVG Version: 6.00 Build 0)  -->
<svg version="1.1" id="Layer_1" xmlns="http://www.w3.org/2000/svg" xmlns:xlink="http://www.w3.org/1999/xlink" x="0px" y="0px"
	 viewBox="0 0 65 65" style="enable-background:new 0 0 65 65;" xml:space="preserve">
<style type="text/css">
	.st0{fill:#FFFFFF;stroke:#E54125;stroke-width:2;stroke-linecap:round;stroke-linejoin:round;stroke-miterlimit:10;}
	.st1{fill:#FAD1C4;stroke:#E54125;stroke-width:2;stroke-linecap:round;stroke-linejoin:round;stroke-miterlimit:10;}
	.st2{fill:none;stroke:#E54125;stroke-width:2;stroke-linecap:round;stroke-linejoin:round;stroke-miterlimit:10;}
</style>
<g>
	<g>
		<path class="st1" d="M28.6,33.2H6.8c-1.3,0-2.3-1-2.3-2.3V9.5h9.5l2.7,4.5h14.1v16.8C30.9,32.2,29.9,33.2,28.6,33.2z"/>
		<path class="st0" d="M22.7,23.2c-0.2,0-0.3,0-0.5,0c-0.1-2.6-2.3-4.7-4.9-4.6c-2.6,0.1-4.6,2.2-4.6,4.8c0,0.3,0,0.5,0.1,0.7
			c-1.2-0.3-2.4,0.4-2.7,1.7c-0.3,1.2,0.4,2.4,1.7,2.7c0.2,0,0.4,0.1,0.6,0.1h10.4c1.5,0,2.7-1.2,2.7-2.7
			C25.4,24.4,24.2,23.2,22.7,23.2z"/>
	</g>
	<g>
		<path class="st1" d="M58.2,55.5H36.4c-1.3,0-2.3-1-2.3-2.3V31.8h9.5l2.7,4.5h14.1v16.8C60.5,54.4,59.5,55.5,58.2,55.5z"/>
		<path class="st0" d="M52.3,45.5c-0.2,0-0.3,0-0.5,0c-0.1-2.6-2.3-4.7-4.9-4.6c-2.6,0.1-4.6,2.2-4.6,4.8c0,0.3,0,0.5,0.1,0.7
			c-1.2-0.3-2.4,0.4-2.7,1.7c-0.3,1.2,0.4,2.4,1.7,2.7c0.2,0,0.4,0.1,0.6,0.1h10.4c1.5,0,2.7-1.2,2.7-2.7S53.8,45.5,52.3,45.5z"/>
	</g>
	<g>
		<polyline class="st2" points="23.9,39.7 28.5,44.3 23.9,49 		"/>
		<path class="st2" d="M17.6,38.1v3.1c0,1.7,1.4,3.1,3.1,3.1h7.8"/>
	</g>
</g>
</svg>
