<?xml version="1.0" encoding="utf-8"?>
<!-- Generator: Adobe Illustrator 23.0.0, SVG Export Plug-In . SVG Version: 6.00 Build 0)  -->
<svg version="1.1" id="Icons" xmlns="http://www.w3.org/2000/svg" xmlns:xlink="http://www.w3.org/1999/xlink" x="0px" y="0px"
	 width="512px" height="512px" viewBox="0 0 512 512" style="enable-background:new 0 0 512 512;" xml:space="preserve">
<style type="text/css">
	.st0{fill:none;}
	.st1{fill:#F16228;}
</style>
<g>
	<path class="st0" d="M341.3,85.3H51.2v273.1h256v-8.5c0-20.3,14.3-37.7,34.1-41.8V85.3z M142.4,266.8c3.3,3.2,3.4,8.4,0.4,11.8
		c-3.1,3.5-8.5,3.8-12,0.7l-48.5-45.2c-0.4-0.3-0.7-0.7-1-1c-6.2-6.8-5.7-17.3,1-23.5l48.5-45.2c3.4-3.2,8.8-3,12.1,0.4
		c3.2,3.4,3,8.8-0.4,12.1l-48.5,45.2L142.4,266.8z M229.5,174.5l-51.2,102.4c-2.1,4.2-7.2,5.9-11.5,3.8c-4.2-2.1-5.9-7.2-3.8-11.5
		l51.2-102.4c0,0,0,0,0,0c2.1-4.2,7.2-5.9,11.4-3.8c0,0,0,0,0,0C229.9,165.1,231.6,170.3,229.5,174.5z M310.3,234.1l-48.5,45.2
		c-0.1,0.1-0.2,0.2-0.3,0.3c-3.5,3.1-8.9,2.8-12-0.7c-3.1-3.5-2.8-8.9,0.7-12l48.5-45.2l-48.5-44.8c-3.3-3.2-3.4-8.4-0.4-11.8
		c3.1-3.5,8.5-3.8,12-0.7l48.5,45.2c0.4,0.3,0.7,0.7,1,1C317.5,217.4,317.1,227.9,310.3,234.1z"/>
	<path class="st0" d="M34.1,358.4V85.3c0-9.4,7.6-17.1,17.1-17.1h290.1c9.4,0,17.1,7.6,17.1,17.1v108.6c4.9-5.6,10.7-10.3,17.1-14
		V34.1c0-9.4-7.6-17.1-17.1-17.1H34.1c-9.4,0-17.1,7.6-17.1,17.1v341.3c0,9.4,7.6,17.1,17.1,17.1h273.1v-17.1h-256
		C41.8,375.5,34.1,367.8,34.1,358.4z M290.1,34.1h51.2c4.7,0,8.5,3.8,8.5,8.5s-3.8,8.5-8.5,8.5h-51.2c-4.7,0-8.5-3.8-8.5-8.5
		S285.4,34.1,290.1,34.1z M136.5,34.1h8.5c4.7,0,8.5,3.8,8.5,8.5s-3.8,8.5-8.5,8.5h-8.5c-4.7,0-8.5-3.8-8.5-8.5
		S131.8,34.1,136.5,34.1z M93.9,34.1h8.5c4.7,0,8.5,3.8,8.5,8.5s-3.8,8.5-8.5,8.5h-8.5c-4.7,0-8.5-3.8-8.5-8.5S89.2,34.1,93.9,34.1z
		 M51.2,34.1h8.5c4.7,0,8.5,3.8,8.5,8.5s-3.8,8.5-8.5,8.5h-8.5c-4.7,0-8.5-3.8-8.5-8.5S46.5,34.1,51.2,34.1z"/>
	<path class="st0" d="M358.4,238.9v68.3h17.1v-68.3c0-18.9,15.3-34.1,34.1-34.1c18.9,0,34.1,15.3,34.1,34.1v25.6
		c0,4.7,3.8,8.5,8.5,8.5c4.7,0,8.5-3.8,8.5-8.5v-25.6c0-28.3-22.9-51.2-51.2-51.2S358.4,210.7,358.4,238.9z"/>
	<path class="st0" d="M426.7,392.5c0-5-2.2-9.8-6-13c-3.1-2.6-7-4.1-11.1-4.1c-1,0-2,0.1-3,0.2c-6.9,1.2-12.4,6.5-13.8,13.4
		c-1,5,0.3,10.3,3.5,14.2c3.2,3.9,4.5,9,3.4,14l-5.3,26.5h30.3l-5.3-26.3h0c-1.1-4.9,0.1-10.1,3.3-14.1
		C425.3,400.3,426.7,396.5,426.7,392.5z"/>
	<path class="st0" d="M469.3,324.3H349.9c-14.1,0-25.6,11.5-25.6,25.6v119.5c0,14.1,11.5,25.6,25.6,25.6h119.5
		c14.1,0,25.6-11.5,25.6-25.6V349.9C494.9,335.7,483.5,324.3,469.3,324.3z M436.2,414l5.3,26.3c0.2,1.1,0.3,2.3,0.3,3.4
		c0,9.4-7.7,17.1-17.1,17.1h-30.3c-1.1,0-2.2-0.1-3.3-0.3c-9.2-1.9-15.2-10.9-13.4-20.1l5.3-26.5c-6.4-7.8-8.9-18.1-6.9-28
		c1.1-5.7,3.7-11.1,7.5-15.5c12.2-14.3,33.8-16,48.1-3.8l0,0c14.2,12.1,16,33.4,4.1,47.8L436.2,414z"/>
	<path class="st1" d="M469.3,307.2h-76.8v-68.3c0-9.4,7.6-17.1,17.1-17.1s17.1,7.6,17.1,17.1v25.6c0,14.1,11.5,25.6,25.6,25.6
		c14.1,0,25.6-11.5,25.6-25.6v-25.6c0.1-37.6-30.2-68.1-67.7-68.3c-5.9,0-11.9,0.7-17.6,2.2V34.1c0-18.9-15.3-34.1-34.1-34.1H34.1
		C15.3,0,0,15.3,0,34.1v341.3c0,18.9,15.3,34.1,34.1,34.1h273.1v59.7c0,23.6,19.1,42.6,42.7,42.7h119.5c23.6,0,42.6-19.1,42.7-42.7
		V349.9C512,326.3,492.9,307.2,469.3,307.2z M409.6,187.7c28.3,0,51.2,22.9,51.2,51.2v25.6c0,4.7-3.8,8.5-8.5,8.5
		c-4.7,0-8.5-3.8-8.5-8.5v-25.6c0-18.9-15.3-34.1-34.1-34.1c-18.9,0-34.1,15.3-34.1,34.1v68.3h-17.1v-68.3
		C358.4,210.7,381.3,187.7,409.6,187.7z M307.2,392.5H34.1c-9.4,0-17.1-7.6-17.1-17.1V34.1c0-9.4,7.6-17.1,17.1-17.1h324.3
		c9.4,0,17.1,7.6,17.1,17.1v145.8c-6.4,3.7-12.2,8.5-17.1,14V85.3c0-9.4-7.6-17.1-17.1-17.1H51.2c-9.4,0-17.1,7.6-17.1,17.1v273.1
		c0,9.4,7.6,17.1,17.1,17.1h256V392.5z M307.2,349.9v8.5h-256V85.3h290.1v222.7C321.5,312.1,307.2,329.6,307.2,349.9z M494.9,469.3
		c0,14.1-11.5,25.6-25.6,25.6H349.9c-14.1,0-25.6-11.5-25.6-25.6V349.9c0-14.1,11.5-25.6,25.6-25.6h119.5
		c14.1,0,25.6,11.5,25.6,25.6V469.3z"/>
	<path class="st1" d="M431.7,366.5L431.7,366.5c-14.3-12.2-35.8-10.5-48.1,3.8c-3.8,4.5-6.4,9.8-7.5,15.5c-2,9.9,0.6,20.2,6.9,28
		l-5.3,26.5c-1.9,9.2,4.1,18.2,13.4,20.1c1.1,0.2,2.2,0.3,3.3,0.3h30.3c9.4,0,17.1-7.6,17.1-17.1c0-1.2-0.1-2.3-0.3-3.4l-5.3-26.3
		l-0.3,0.3C447.8,399.9,446,378.6,431.7,366.5z M419.4,417.4L419.4,417.4l5.3,26.3h-30.3l5.3-26.5c1.1-4.9-0.2-10.1-3.4-14
		c-3.3-4-4.5-9.2-3.5-14.2c1.5-6.9,6.9-12.1,13.8-13.4c1-0.2,2-0.2,3-0.2c4.1,0,8,1.4,11.1,4.1c3.8,3.3,6,8,6,13
		c0,3.9-1.4,7.8-3.9,10.8C419.6,407.3,418.3,412.5,419.4,417.4z"/>
	<path class="st1" d="M51.2,51.2h8.5c4.7,0,8.5-3.8,8.5-8.5s-3.8-8.5-8.5-8.5h-8.5c-4.7,0-8.5,3.8-8.5,8.5S46.5,51.2,51.2,51.2z"/>
	<path class="st1" d="M93.9,51.2h8.5c4.7,0,8.5-3.8,8.5-8.5s-3.8-8.5-8.5-8.5h-8.5c-4.7,0-8.5,3.8-8.5,8.5S89.2,51.2,93.9,51.2z"/>
	<path class="st1" d="M136.5,51.2h8.5c4.7,0,8.5-3.8,8.5-8.5s-3.8-8.5-8.5-8.5h-8.5c-4.7,0-8.5,3.8-8.5,8.5S131.8,51.2,136.5,51.2z"
		/>
	<path class="st1" d="M290.1,51.2h51.2c4.7,0,8.5-3.8,8.5-8.5s-3.8-8.5-8.5-8.5h-51.2c-4.7,0-8.5,3.8-8.5,8.5S285.4,51.2,290.1,51.2
		z"/>
	<path class="st1" d="M142.8,164.8c-3.2-3.4-8.6-3.6-12.1-0.4l-48.5,45.2c-6.8,6.2-7.2,16.7-1,23.5c0.3,0.4,0.7,0.7,1,1l48.5,45.2
		c3.5,3.1,8.9,2.8,12-0.7c3-3.4,2.9-8.6-0.4-11.8l-48.5-44.8l48.5-45.2C145.8,173.7,146,168.3,142.8,164.8z"/>
	<path class="st1" d="M310.3,209.6l-48.5-45.2c-3.5-3.1-8.9-2.8-12,0.7c-3,3.4-2.9,8.6,0.4,11.8l48.5,44.8l-48.5,45.2
		c-3.5,3.1-3.8,8.5-0.7,12c3.1,3.5,8.5,3.8,12,0.7c0.1-0.1,0.2-0.2,0.3-0.3l48.5-45.2c6.8-6.2,7.2-16.7,1-23.5
		C311,210.3,310.7,209.9,310.3,209.6z"/>
	<path class="st1" d="M225.7,163C225.7,163,225.7,163,225.7,163c-4.2-2.1-9.3-0.4-11.5,3.8c0,0,0,0,0,0L163,269.3
		c-2.1,4.2-0.4,9.3,3.8,11.5c4.2,2.1,9.3,0.4,11.5-3.8l51.2-102.4C231.6,170.3,229.9,165.1,225.7,163z"/>
</g>
</svg>
