<?xml version="1.0" encoding="utf-8"?>
<!-- Generator: Adobe Illustrator 23.0.0, SVG Export Plug-In . SVG Version: 6.00 Build 0)  -->
<svg version="1.1" id="Capa_1" xmlns="http://www.w3.org/2000/svg" xmlns:xlink="http://www.w3.org/1999/xlink" x="0px" y="0px"
	 width="396.8px" height="397.2px" viewBox="0 0 396.8 397.2" style="enable-background:new 0 0 396.8 397.2;" xml:space="preserve"
	>
<style type="text/css">
	.st0{fill:none;}
	.st1{fill:#1B1B1B;}
</style>
<g>
	<path class="st0" d="M324.8,72.8C290,38,244.4,20.4,198.8,20.4c-45.6,0-91.2,17.6-126,52.4s-52.4,80.4-52.4,126
		c0,45.6,17.2,91.2,52.4,126c34.8,34.8,80.4,52.4,126,52.4c45.6,0,91.2-17.6,126-52.4c35.2-34.8,52.4-80.4,52.4-126
		C377.2,153.2,359.6,107.6,324.8,72.8z M297.2,204.4c-1.6,6-5.2,11.2-10.8,14.4l-58.8,34l-0.4,0.4h-0.4L170,286
		c-2,1.2-9.6,4.4-13.2,4.4c-6.4,0-12-2.4-16.4-6.8c-4-4-6.8-10-6.8-16.4v-68v-68c0-0.4,0-1.2,0-1.6c0.4-1.6,0.4-3.2,0.8-4.4
		c0.8-2,1.2-4,2.4-5.6c3.2-5.6,8.4-9.2,14-10.8c5.6-1.6,12-0.8,17.6,2.4l57.6,33.2l58,33.6c0,0,13.6,8.8,13.6,22
		C297.6,201.6,297.6,203.2,297.2,204.4z"/>
	<path class="st0" d="M275.6,195.2l-58-33.6h-0.4c0,0-0.4,0-0.8-0.4l-56.8-32.8c-0.4-0.4-0.8-0.4-1.2-0.8c-0.4,0-1.2,0-2,0
		c-0.4,0.4-1.2,0.8-1.6,1.2c0,0.4-0.4,0.8-0.4,0.8c-0.4,0-0.4,0.4-0.4,0.4c0,0.4,0,0.4,0,0.8v0.4v67.6v67.6c0,0.8,0.4,2,0.8,2.4
		c0.8,0.4,1.6,0.8,2.4,0.8s2.8-0.8,3.2-1.2l56.8-32.8c0,0,0.4-0.4,0.8-0.4l58-33.6c0.8-0.4,2-2,2-3.6
		C278,196.8,276.4,195.6,275.6,195.2z"/>
	<path class="st1" d="M284,178l-58-33.6l-57.6-33.2c-5.6-3.2-12-4-17.6-2.4c-5.6,1.6-10.8,5.2-14,10.8c-1.2,1.6-1.6,3.6-2.4,5.6
		c-0.4,1.2-0.4,2.8-0.8,4.4c0,0.4,0,1.2,0,1.6v68v68c0,6.4,2.8,12.4,6.8,16.4c4.4,4.4,10,6.8,16.4,6.8c3.6,0,11.2-3.2,13.2-4.4
		l56.8-32.8h0.4l0.4-0.4l58.8-34c5.6-3.2,9.2-8.4,10.8-14.4c0.4-1.2,0.4-2.8,0.4-4.4C297.6,186.8,284,178,284,178z M276,201.6
		l-58,33.6c-0.4,0-0.8,0.4-0.8,0.4l-56.8,32.8c-0.4,0.4-2.4,1.2-3.2,1.2s-1.6-0.4-2.4-0.8c-0.4-0.4-0.8-1.6-0.8-2.4v-67.6v-67.6
		v-0.4c0-0.4,0-0.4,0-0.8c0,0,0-0.4,0.4-0.4c0,0,0.4-0.4,0.4-0.8c0.4-0.4,1.2-0.8,1.6-1.2c0.8,0,1.6,0,2,0c0.4,0.4,0.8,0.4,1.2,0.8
		l56.8,32.8c0.4,0.4,0.8,0.4,0.8,0.4h0.4l58,33.6c0.8,0.4,2.4,1.6,2.4,2.8C278,199.6,276.8,201.2,276,201.6z"/>
	<path class="st1" d="M338.8,58.4C300.4,19.6,249.6,0,198.8,0S97.2,19.2,58.4,58C19.6,97.2,0,148,0,198.8s19.2,101.6,58,140.4
		c38.8,38.8,89.6,58,140.4,58c50.8,0,101.6-19.2,140.4-58s58-89.6,58-140.4S377.6,97.2,338.8,58.4z M324.8,324.8
		c-34.8,34.8-80.4,52.4-126,52.4c-45.6,0-91.2-17.6-126-52.4c-35.2-34.8-52.4-80.4-52.4-126c0-45.6,17.6-91.2,52.4-126
		s80.4-52.4,126-52.4c45.6,0,91.2,17.6,126,52.4s52.4,80.4,52.4,126C377.2,244.4,360,290,324.8,324.8z"/>
</g>
</svg>
