<svg width="36" height="36" viewBox="0 0 36 36" fill="none" xmlns="http://www.w3.org/2000/svg">
<path d="M31 11.6H11.8V10.4H31V11.6Z" fill="#94A3BC"></path>
<path d="M11.8 17.6H31V16.4H11.8V17.6Z" fill="#94A3BC"></path>
<path d="M31 23.6H11.8V22.4H31V23.6Z" fill="#94A3BC"></path>
<path d="M11.8 29.6H31V28.4H11.8V29.6Z" fill="#94A3BC"></path>
<path d="M4.6 10.4H5.8V11.6H4.6V10.4Z" fill="#94A3BC"></path>
<path d="M7 11.6V12.8H5.8V11.6H7Z" fill="#94A3BC"></path>
<path d="M8.2 10.4V11.6H7V10.4H8.2Z" fill="#94A3BC"></path>
<path d="M8.2 10.4V9.2H9.4V10.4H8.2Z" fill="#94A3BC"></path>
<path d="M4.6 16.4H5.8V17.6H4.6V16.4Z" fill="#94A3BC"></path>
<path d="M7 17.6V18.8H5.8V17.6H7Z" fill="#94A3BC"></path>
<path d="M8.2 16.4V17.6H7V16.4H8.2Z" fill="#94A3BC"></path>
<path d="M8.2 16.4V15.2H9.4V16.4H8.2Z" fill="#94A3BC"></path>
<path d="M4.6 22.4H5.8V23.6H4.6V22.4Z" fill="#94A3BC"></path>
<path d="M7 23.6V24.8H5.8V23.6H7Z" fill="#94A3BC"></path>
<path d="M8.2 22.4V23.6H7V22.4H8.2Z" fill="#94A3BC"></path>
<path d="M8.2 22.4V21.2H9.4V22.4H8.2Z" fill="#94A3BC"></path>
<path d="M4.6 28.4H5.8V29.6H4.6V28.4Z" fill="#94A3BC"></path>
<path d="M7 29.6V30.8H5.8V29.6H7Z" fill="#94A3BC"></path>
<path d="M8.2 28.4H7V29.6H8.2V28.4Z" fill="#94A3BC"></path>
<path d="M8.2 28.4V27.2H9.4V28.4H8.2Z" fill="#94A3BC"></path>
<path fill-rule="evenodd" clip-rule="evenodd" d="M0 0H36V36H0V0ZM1.2 1.2H34.8V33.6H1.2V1.2Z" fill="#94A3BC"></path>
</svg>