<?xml version="1.0" encoding="utf-8"?>
<!-- Generator: Adobe Illustrator 25.2.1, SVG Export Plug-In . SVG Version: 6.00 Build 0)  -->
<svg version="1.1" id="Layer_1" xmlns="http://www.w3.org/2000/svg" xmlns:xlink="http://www.w3.org/1999/xlink" x="0px" y="0px"
	 viewBox="0 0 65 65" style="enable-background:new 0 0 65 65;" xml:space="preserve">
<style type="text/css">
	.st0{fill:#FFFFFF;stroke:#E54125;stroke-width:2;stroke-linecap:round;stroke-linejoin:round;stroke-miterlimit:10;}
	.st1{fill:#FAD1C4;stroke:#E54125;stroke-width:2;stroke-linecap:round;stroke-linejoin:round;stroke-miterlimit:10;}
	.st2{fill:none;stroke:#E54125;stroke-width:2;stroke-linecap:round;stroke-linejoin:round;stroke-miterlimit:10;}
</style>
<g>
	<path class="st0" d="M33.3,15.4c-8.6-3.7-18.6-0.5-23.4,7.7l8,8"/>
	<path class="st0" d="M49.6,31.6c3.8,8.6,0.5,18.7-7.6,23.5l-8-8"/>
	<path class="st1" d="M27.6,50.6L14.4,37.4c0,0,11.2-27.9,42.7-29.6C55.4,39.2,27.6,50.6,27.6,50.6z"/>
	<circle class="st1" cx="34.6" cy="30.4" r="5.2"/>
	<path class="st1" d="M10.1,47.5c2-2,5.3-2,7.4,0c2,2,2,5.3,0,7.4c-2.6,2.6-10.6,3.3-10.6,3.3S7.5,50.1,10.1,47.5z"/>
	<line class="st1" x1="38.7" y1="12.4" x2="52.6" y2="26.2"/>
</g>
</svg>
