<svg fill="#f16028" height="512" viewBox="0 0 512 512" width="512" xmlns="http://www.w3.org/2000/svg"><g id="outline"><path d="m470 32h-428a26.029 26.029 0 0 0 -26 26v396a26.029 26.029 0 0 0 26 26h428a26.029 26.029 0 0 0 26-26v-396a26.029 26.029 0 0 0 -26-26zm-198 432h-32v-32h32zm-24-48v-16h16v16zm8-32a112 112 0 1 1 112-112 112.127 112.127 0 0 1 -112 112zm224 70a10.011 10.011 0 0 1 -10 10h-182v-40a8 8 0 0 0 -8-8v-18.266a127.666 127.666 0 0 0 60.564-29.734h44.812a24 24 0 1 0 0-16h-29.535a128 128 0 1 0 -199.682 0h-29.535a24 24 0 1 0 0 16h44.812a127.666 127.666 0 0 0 60.564 29.734v18.266a8 8 0 0 0 -8 8v40h-182a10.011 10.011 0 0 1 -10-10v-342h448zm-80-94a8 8 0 1 1 8 8 8.009 8.009 0 0 1 -8-8zm-288 0a8 8 0 1 1 -8-8 8.009 8.009 0 0 1 8 8zm368-264h-448v-38a10.011 10.011 0 0 1 10-10h428a10.011 10.011 0 0 1 10 10z"/><circle cx="456" cy="72" r="8"/><circle cx="424" cy="72" r="8"/><circle cx="392" cy="72" r="8"/><path d="m256 176a96 96 0 1 0 96 96 96.108 96.108 0 0 0 -96-96zm0 176a80 80 0 1 1 80-80 80.091 80.091 0 0 1 -80 80z"/><path d="m304 224h-96a8 8 0 0 0 -8 8v80a8 8 0 0 0 8 8h96a8 8 0 0 0 8-8v-80a8 8 0 0 0 -8-8zm-56 16h16v16h-16zm48 64h-80v-64h16v24a8 8 0 0 0 8 8h32a8 8 0 0 0 8-8v-24h16z"/></g></svg>