<?xml version="1.0" encoding="utf-8"?>
<!-- Generator: Adobe Illustrator 23.0.0, SVG Export Plug-In . SVG Version: 6.00 Build 0)  -->
<svg version="1.1" id="Layer_1" xmlns="http://www.w3.org/2000/svg" xmlns:xlink="http://www.w3.org/1999/xlink" x="0px" y="0px"
	 width="380.3px" height="512px" viewBox="0 0 380.3 512" style="enable-background:new 0 0 380.3 512;" xml:space="preserve">
<style type="text/css">
	.st0{fill:none;}
</style>
<g>
	<path class="st0" d="M235.4,75.3c0-24.9-20.3-45.3-45.3-45.3c-25,0-45.3,20.3-45.3,45.3v5.1h90.5V75.3z"/>
	<path class="st0" d="M336.4,110.3H43.9L30,457.5c-0.3,6.6,2,12.7,6.5,17.4C41,479.4,47,482,53.6,482h273.1c6.6,0,12.6-2.6,17.1-7.2
		c4.4-4.6,6.8-10.8,6.5-17.4L336.4,110.3z M265.4,235.9c0,41.5-33.8,75.2-75.2,75.2s-75.3-33.8-75.3-75.3v-60.3c0-8.3,6.7-15,15-15
		s15,6.7,15,15v60.3c0,25,20.3,45.3,45.3,45.3c24.9,0,45.2-20.3,45.2-45.3l0-60.3c0-8.3,6.7-15,15-15c8.3,0,15,6.7,15,15
		L265.4,235.9z"/>
	<path d="M250.4,160.7c-8.3,0-15,6.7-15,15l0,60.3c0,25-20.3,45.3-45.2,45.3c-25,0-45.3-20.3-45.3-45.3v-60.3c0-8.3-6.7-15-15-15
		s-15,6.7-15,15v60.3c0,41.5,33.8,75.3,75.3,75.3s75.2-33.8,75.2-75.2l0-60.3C265.4,167.4,258.7,160.7,250.4,160.7z"/>
	<path d="M380.3,456.3L365.8,94.7c-0.3-8-6.9-14.4-15-14.4h-85.4v-5.1c0-41.5-33.8-75.3-75.3-75.3c-41.5,0-75.3,33.8-75.3,75.3v5.1
		H29.5c-8.1,0-14.7,6.4-15,14.4L0,456.3c-0.6,14.8,4.7,28.8,14.8,39.3C25,506.2,38.8,512,53.6,512h273.1c14.8,0,28.6-5.8,38.7-16.4
		S380.9,471.1,380.3,456.3z M144.9,75.3c0-24.9,20.3-45.3,45.3-45.3c24.9,0,45.3,20.3,45.3,45.3v5.1h-90.5V75.3z M343.8,474.8
		c-4.5,4.6-10.5,7.2-17.1,7.2H53.6c-6.6,0-12.6-2.6-17.1-7.2c-4.5-4.6-6.8-10.8-6.5-17.4l13.9-347.1h292.5l13.9,347.1
		C350.6,464,348.3,470.2,343.8,474.8z"/>
</g>
</svg>
