<svg fill="#e6400c" id="Layer_1_1_" enable-background="new 0 0 64 64" viewBox="0 0 64 64" xmlns="http://www.w3.org/2000/svg"><path d="m32 32c4.962 0 9-4.038 9-9s-4.038-9-9-9-9 4.038-9 9 4.038 9 9 9zm0-16c3.86 0 7 3.14 7 7s-3.14 7-7 7-7-3.14-7-7 3.14-7 7-7z"/><path d="m2.13 28.493c.177.313.51.507.87.507h16.629l.044 2.25c.008.419.277.789.673.925l3.986 1.38 2.542 3.366c.253.335.688.476 1.089.354l4.037-1.23 4.036 1.229c.096.029.194.043.292.043.308 0 .605-.143.798-.397l2.543-3.366 3.986-1.38c.396-.137.665-.506.673-.925l.043-2.249h16.629c.36 0 .693-.194.87-.507.178-.313.173-.698-.013-1.007l-2.691-4.486 2.691-4.485c.186-.309.19-.694.013-1.007-.177-.314-.51-.508-.87-.508h-16.629l-.044-2.25c-.008-.419-.277-.789-.673-.925l-3.986-1.38-2.543-3.365c-.253-.335-.689-.476-1.089-.354l-4.036 1.229-4.036-1.229c-.401-.121-.836.019-1.089.354l-2.543 3.366-3.986 1.38c-.396.137-.665.506-.673.925l-.044 2.249h-16.629c-.36 0-.693.194-.87.507-.178.313-.173.698.013 1.007l2.691 4.486-2.691 4.485c-.186.309-.191.694-.013 1.008zm57.104-9.493-2.091 3.485c-.19.317-.19.712 0 1.029l2.091 3.486h-14.802l2.388-3.429c.239-.343.239-.799 0-1.143l-2.388-3.428zm-37.829.861c.113-.162.175-.354.179-.552l.075-3.823 3.615-1.251c.188-.065.351-.184.471-.342l2.305-3.051 3.659 1.115c.19.058.393.058.583 0l3.659-1.114 2.305 3.051c.12.158.283.277.471.342l3.615 1.251.075 3.823c.004.198.066.39.18.552l2.184 3.138-2.186 3.139c-.113.162-.175.354-.179.552l-.075 3.823-3.615 1.251c-.188.065-.351.184-.471.342l-2.305 3.051-3.659-1.115c-.095-.028-.193-.043-.291-.043s-.196.015-.292.043l-3.659 1.114-2.305-3.051c-.12-.158-.283-.277-.471-.342l-3.615-1.251-.075-3.823c-.004-.198-.066-.39-.18-.552l-2.184-3.138zm-14.548 3.654c.19-.317.19-.712 0-1.029l-2.091-3.486h14.801l-2.388 3.429c-.239.343-.239.799 0 1.143l2.389 3.428h-14.802z"/><path d="m31 27c.015 0 .03 0 .045-.001.281-.013.543-.143.723-.359l5-6-1.536-1.28-4.299 5.159-2.226-2.226-1.414 1.414 3 3c.188.188.442.293.707.293z"/><path d="m36.973 60.53c.022.518.043 1.019.057 1.498l1.999-.056c-.013-.487-.035-.999-.058-1.526-.137-3.239-.309-7.269 1.428-9.713.01-.013.01-.013 3.641-5.143.163-.231.43-.369.712-.369.439 0 .666.29.743.414.077.125.235.457.067.796l-2.142 3.705c-.264.456-.403.975-.403 1.502h2c0-.176.046-.349.134-.5l.212-.367 4.516-1.507.032.016.016-.032 2.726-.91c.473-.177.896-.474 1.224-.856l4.576-5.339c.164-.191.402-.304.653-.31.271-.001.498.097.681.291.277.292.285.798.02 1.178l-5.564 7.949c-.14.199-.302.38-.483.539l-3.779 3.307c-1.318 1.154-4.364 4.127-4.172 6.81l1.995-.144c-.105-1.46 1.816-3.693 3.494-5.161l3.779-3.307c.301-.264.571-.564.804-.896l5.564-7.95c.813-1.161.727-2.717-.206-3.7-.569-.601-1.36-.919-2.182-.915-.817.021-1.591.388-2.123 1.008l-.297.346.068-.409c.123-.735-.083-1.482-.565-2.051-.482-.568-1.185-.895-1.93-.895-1.163 0-2.172.788-2.455 1.916l-.683 2.735-2.565 5.13-1.637.546.45-.78c.449-.897.402-1.942-.125-2.795s-1.441-1.363-2.444-1.363c-.931 0-1.808.454-2.345 1.213l-3.623 5.119c-2.148 3.023-1.961 7.433-1.81 10.976zm15.938-17.251c.033-.065.058-.134.076-.205l.71-2.841c.059-.236.271-.401.514-.401.213 0 .345.117.404.188.06.07.154.219.119.429l-.612 3.675-1.763 2.056c-.109.128-.251.227-.374.273l-.793.264z"/><path d="m19.281 45.221c.283 0 .55.138.713.369 0 0 3.558 5.027 3.625 5.122 1.752 2.466 1.581 6.497 1.443 9.735-.022.527-.044 1.038-.057 1.525l1.999.056c.013-.478.035-.979.057-1.496.15-3.544.337-7.954-1.812-10.979l-.003.002c-.194-.283-.895-1.272-3.619-5.122-.538-.76-1.415-1.213-2.346-1.213-1.003 0-1.917.509-2.444 1.362-.527.854-.574 1.898-.097 2.849l.42.726-1.634-.545-2.565-5.13-.684-2.735c-.283-1.128-1.292-1.916-2.454-1.916-.746 0-1.449.326-1.931.895-.481.568-.687 1.316-.564 2.05l.068.409-.297-.345c-.532-.62-1.306-.987-2.123-1.008-.806-.004-1.612.313-2.182.915-.932.984-1.018 2.54-.206 3.7l5.565 7.95c.231.33.501.631.803.896l3.779 3.307c1.677 1.468 3.599 3.7 3.494 5.161l1.995.144c.192-2.683-2.853-5.656-4.171-6.81l-3.779-3.307c-.181-.159-.343-.339-.482-.537l-5.566-7.951c-.265-.379-.257-.886.02-1.177.183-.193.432-.294.681-.291.252.006.49.119.654.31l4.576 5.338c.328.383.751.68 1.259.87l2.691.898.016.031.031-.016 4.517 1.507.212.368c.053.093.134.433.134.694h2c0-.371-.085-1.145-.403-1.695l-2.114-3.653c-.197-.393-.039-.725.038-.85.077-.124.304-.413.743-.413zm-7.198 1.244c-.158-.06-.299-.158-.408-.286l-1.763-2.056-.612-3.675c-.035-.21.059-.358.118-.428s.19-.188.404-.188c.244 0 .455.165.514.401l.71 2.842c.018.071.043.139.076.205l1.72 3.439z"/><path d="m30.549 41.933c-.629-.048-1.264-.128-1.885-.238l-.348 1.97c.686.121 1.386.209 2.081.262z"/><path d="m34.343 41.847c-.625.077-1.263.123-1.893.137l.045 2c.697-.016 1.401-.067 2.093-.152z"/><path d="m26.814 41.272c-.604-.171-1.21-.375-1.799-.608l-.733 1.861c.651.257 1.32.483 1.988.672z"/><path d="m36.212 41.522.441 1.95c.68-.154 1.36-.344 2.022-.567l-.637-1.896c-.596.201-1.211.373-1.826.513z"/><path d="m23.288 39.879c-.561-.29-1.113-.612-1.641-.955l-1.091 1.676c.583.38 1.193.735 1.814 1.055z"/><path d="m41.496 39.448c-.547.316-1.116.608-1.689.867l.823 1.823c.634-.286 1.262-.609 1.866-.958z"/><path d="m20.11 37.81c-.491-.395-.969-.82-1.419-1.262l-1.402 1.427c.497.489 1.025.958 1.568 1.394z"/><path d="m44.575 37.232c-.473.418-.972.816-1.484 1.185l1.169 1.623c.565-.407 1.117-.847 1.64-1.309z"/><path d="m14.605 34.755c.39.577.815 1.141 1.262 1.677l1.536-1.281c-.404-.485-.788-.995-1.142-1.517z"/><path d="m45.934 35.906 1.467 1.36c.475-.513.929-1.053 1.348-1.607l-1.593-1.208c-.38.501-.791.991-1.222 1.455z"/><path d="m12.611 31.068c.27.646.574 1.282.905 1.894l1.759-.951c-.299-.553-.575-1.129-.818-1.713z"/><path d="m50.936 32.081-1.802-.867c-.274.57-.579 1.131-.907 1.668l1.706 1.043c.362-.594.7-1.215 1.003-1.844z"/><path d="m13.55 14.198 1.815.84c.263-.57.561-1.135.883-1.68l-1.722-1.018c-.355.602-.683 1.227-.976 1.858z"/><path d="m51.885 14.662c-.277-.638-.591-1.271-.931-1.88l-1.746.975c.308.552.592 1.124.843 1.702z"/><path d="m18.495 10.302-1.484-1.34c-.468.518-.914 1.066-1.326 1.627l1.611 1.185c.373-.508.776-1.003 1.199-1.472z"/><path d="m49.838 11.003c-.398-.57-.831-1.128-1.285-1.658l-1.518 1.302c.412.48.803.985 1.164 1.501z"/><path d="m19.836 8.956c.467-.424.961-.83 1.468-1.206l-1.191-1.607c-.56.415-1.105.863-1.621 1.332z"/><path d="m44.291 8.027c.496.386.979.804 1.437 1.241l1.381-1.446c-.506-.483-1.04-.944-1.588-1.371z"/><path d="m24.561 5.804-.85-1.81c-.629.295-1.253.626-1.852.985l1.026 1.717c.542-.325 1.106-.624 1.676-.892z"/><path d="m41.084 6.004c.562.28 1.119.593 1.653.93l1.067-1.691c-.591-.373-1.206-.719-1.829-1.03z"/><path d="m26.318 5.085c.592-.208 1.205-.389 1.819-.538l-.47-1.944c-.68.164-1.357.365-2.013.595z"/><path d="m40.052 3.373c-.654-.247-1.327-.464-1.999-.643l-.515 1.933c.607.161 1.214.357 1.805.581z"/><path d="m30.003 4.195c.623-.086 1.259-.141 1.891-.164l-.074-1.999c-.698.026-1.402.087-2.091.182z"/><path d="m33.792 4.054c.634.04 1.27.11 1.889.211l.319-1.974c-.683-.111-1.385-.189-2.084-.233z"/></svg>