<?xml version="1.0" encoding="utf-8"?>
<!-- Generator: Adobe Illustrator 24.1.1, SVG Export Plug-In . SVG Version: 6.00 Build 0)  -->
<svg fill="#ffffff" version="1.1" id="Layer_1" xmlns="http://www.w3.org/2000/svg" xmlns:xlink="http://www.w3.org/1999/xlink" x="0px" y="0px"
	 viewBox="0 0 330 310" style="enable-background:new 0 0 330 310;" xml:space="preserve">
<g>
	<path d="M105.6,95.6L150,51.2V235c0,8.3,6.7,15,15,15s15-6.7,15-15V51.2l44.4,44.4c2.9,2.9,6.8,4.4,10.6,4.4
		c3.8,0,7.7-1.5,10.6-4.4c5.9-5.9,5.9-15.4,0-21.2l-70-70c-0.4-0.4-0.7-0.7-1.1-1c-0.2-0.1-0.3-0.3-0.5-0.4
		c-0.2-0.2-0.4-0.3-0.7-0.5c-0.2-0.1-0.4-0.3-0.6-0.4c-0.2-0.1-0.4-0.3-0.6-0.4c-0.2-0.1-0.4-0.2-0.7-0.3c-0.2-0.1-0.4-0.2-0.7-0.3
		c-0.2-0.1-0.4-0.2-0.6-0.2c-0.2-0.1-0.5-0.2-0.7-0.3c-0.2-0.1-0.4-0.1-0.7-0.2c-0.3-0.1-0.5-0.1-0.8-0.2c-0.3,0-0.5-0.1-0.8-0.1
		c-0.2,0-0.5-0.1-0.7-0.1C166,0,165.6,0,165.1,0c0,0-0.1,0-0.1,0c0,0-0.1,0-0.1,0c-0.5,0-0.9,0-1.4,0.1c-0.2,0-0.5,0.1-0.7,0.1
		c-0.3,0-0.5,0.1-0.8,0.1c-0.3,0-0.5,0.1-0.7,0.2c-0.2,0.1-0.5,0.1-0.7,0.2c-0.2,0.1-0.5,0.2-0.7,0.2c-0.2,0.1-0.5,0.2-0.7,0.2
		c-0.2,0.1-0.4,0.2-0.6,0.3c-0.2,0.1-0.5,0.2-0.7,0.3c-0.2,0.1-0.4,0.2-0.6,0.4c-0.2,0.1-0.4,0.3-0.7,0.4c-0.2,0.1-0.4,0.3-0.6,0.5
		c-0.2,0.1-0.4,0.3-0.5,0.4c-0.4,0.3-0.7,0.6-1,0.9c0,0,0,0,0,0l-70,70c-5.9,5.9-5.9,15.4,0,21.2C90.2,101.5,99.7,101.5,105.6,95.6z
		"/>
	<path d="M315,150c-8.3,0-15,6.7-15,15v115H30V165c0-8.3-6.7-15-15-15s-15,6.7-15,15v130c0,8.3,6.7,15,15,15h300c8.3,0,15-6.7,15-15
		V165C330,156.7,323.3,150,315,150z"/>
</g>
</svg>
