<?xml version="1.0" encoding="utf-8"?>
<!-- Generator: Adobe Illustrator 24.1.1, SVG Export Plug-In . SVG Version: 6.00 Build 0)  -->
<svg version="1.1" id="Layer_1" xmlns="http://www.w3.org/2000/svg" xmlns:xlink="http://www.w3.org/1999/xlink" x="0px" y="0px"
	 viewBox="0 0 177.1 37.3" style="enable-background:new 0 0 177.1 37.3;" xml:space="preserve">
<style type="text/css">
	.st0{clip-path:url(#SVGID_2_);fill:url(#SVGID_3_);}
	.st1{fill-rule:evenodd;clip-rule:evenodd;}
	.st2{fill:#062B5E;}
	.st3{font-family:'Montserrat-Medium';}
	.st4{font-size:7.561px;}
	.st5{clip-path:url(#SVGID_5_);fill:url(#SVGID_6_);}
	.st6{clip-path:url(#SVGID_8_);fill:url(#SVGID_9_);}
</style>
<path d="M63.9,5.5h6v20.1h5.7V5.5h6v-5H63.9V5.5z M62.2,0.5H47.8v25.1h14.4v-5h-8.7v-5.1h8.3v-5h-8.3v-5h8.7V0.5z M44.5,0.5H30.2
	v25.1h14.4v-5h-8.7v-5.1h8.3v-5h-8.3v-5h8.7V0.5z M22.1,25.6h5.7L25.6,0.5h-6.1L13.9,15L8.3,0.5H2.3L0,25.6h5.7l1.2-14.9h0.2
	l5.1,14.7h3.4l5.1-14.7h0.2L22.1,25.6z"/>
<g>
	<defs>
		<polygon id="SVGID_1_" points="92.1,20.2 89.7,15.1 87.3,20.2 		"/>
	</defs>
	<clipPath id="SVGID_2_">
		<use xlink:href="#SVGID_1_"  style="overflow:visible;"/>
	</clipPath>
	<linearGradient id="SVGID_3_" gradientUnits="userSpaceOnUse" x1="86.9987" y1="15.1387" x2="91.8387" y2="19.6687">
		<stop  offset="0" style="stop-color:#E5380D"/>
		<stop  offset="1" style="stop-color:#ED7E03"/>
	</linearGradient>
	<rect x="87.3" y="15.1" class="st0" width="4.8" height="5.2"/>
</g>
<path class="st1" d="M89.7,0.5L77.9,25.6h23.5L89.7,0.5z M93.7,21.2L93.7,21.2l-8,0l0,0h-0.6l4.5-9.7l4.5,9.7H93.7z"/>
<path d="M177.1,0.5h-5.7v25.1h5.7V0.5z M153.9,15.5h8.1v10.1h5.7V0.5H162v10h-8.1v-10h-5.7v25.1h5.7V15.5z M137,0
	c-4.1,0-8.2,3-8.2,7.7c0,2.6,1.8,5,4.8,6.5c3,1.5,5.7,2.3,5.7,4.1c0,2.3-2.4,2.5-3.6,2.5c-2.8,0-6.2-2.8-6.2-2.8l-2.9,4.8
	c0,0,3.6,3.3,9.4,3.3c4.9,0,9.5-2.1,9.5-8.1c0-3.3-3.1-5.7-5.9-6.9c-2.9-1.2-5.2-2.2-5.2-3.6c0-1.4,1-2.3,3-2.3
	c2.6,0,5.1,1.7,5.1,1.7l2.3-4.6C144.8,2.4,141.5,0,137,0z M108.9,10L108.9,10l10.1,15.6h5.7V0.5h-5.7v15.6h-0.1l-10-15.6h-5.7v25.1
	h5.7V10z"/>
<text transform="matrix(1 0 0 1 23.3659 35.3431)" class="st2 st3 st4">Ex</text>
<text transform="matrix(1 0 0 1 32.4694 35.3431)" class="st2 st3 st4">c</text>
<text transform="matrix(1 0 0 1 36.5905 35.3431)" class="st2 st3 st4">eeding eC</text>
<text transform="matrix(1 0 0 1 74.3293 35.3431)" class="st2 st3 st4">ommerc</text>
<text transform="matrix(1 0 0 1 106.4733 35.3431)" class="st2 st3 st4">e Ex</text>
<text transform="matrix(1 0 0 1 121.9513 35.3431)" class="st2 st3 st4">c</text>
<text transform="matrix(1 0 0 1 126.0724 35.3431)" class="st2 st3 st4">ellenc</text>
<text transform="matrix(1 0 0 1 148.7497 35.3431)" class="st2 st3 st4">e</text>
<g>
	<defs>
		<rect id="SVGID_4_" y="32.2" width="20.1" height="2.1"/>
	</defs>
	<clipPath id="SVGID_5_">
		<use xlink:href="#SVGID_4_"  style="overflow:visible;"/>
	</clipPath>
	<linearGradient id="SVGID_6_" gradientUnits="userSpaceOnUse" x1="9.7972" y1="31.1138" x2="10.2172" y2="35.0838">
		<stop  offset="0" style="stop-color:#E5380D"/>
		<stop  offset="1" style="stop-color:#ED7E03"/>
	</linearGradient>
	<rect y="32.2" class="st5" width="20.1" height="2.1"/>
</g>
<g>
	<defs>
		<rect id="SVGID_7_" x="157.1" y="32.2" width="20.1" height="2.1"/>
	</defs>
	<clipPath id="SVGID_8_">
		<use xlink:href="#SVGID_7_"  style="overflow:visible;"/>
	</clipPath>
	<linearGradient id="SVGID_9_" gradientUnits="userSpaceOnUse" x1="166.8578" y1="31.1137" x2="167.2778" y2="35.0837">
		<stop  offset="0" style="stop-color:#E5380D"/>
		<stop  offset="1" style="stop-color:#ED7E03"/>
	</linearGradient>
	<rect x="157.1" y="32.2" class="st6" width="20.1" height="2.1"/>
</g>
</svg>
